<?xml version="1.0" encoding="UTF-8" standalone="no"?>
<!-- Created by diasvg.py -->
<svg width="61.750cm" height="39.000cm" viewBox="-18.900 -7.300 42.850 31.700"
 xmlns="http://www.w3.org/2000/svg"
 xmlns:xlink="http://www.w3.org/1999/xlink">
<rect x="-18.850" y="-6.250" width="61.650" height="37.900" fill="#FFFFFF" stroke="none" stroke-width="0"/>
<rect x="-18.850" y="-6.250" width="61.650" height="37.900" fill="none" stroke="#000000" stroke-width="0.100" />
<rect x="-18.850" y="-7.250" width="2.000" height="1.000" fill="#FFFFFF" stroke="none" stroke-width="0"/>
<rect x="-18.850" y="-7.250" width="2.000" height="1.000" fill="none" stroke="#000000" stroke-width="0.100" />
<rect x="-3.400" y="13.850" width="8.585" height="1.400" fill="#FFFFFF" stroke="none" stroke-width="0"/>
<rect x="-3.400" y="13.850" width="8.585" height="1.400" fill="none" stroke="#000000" stroke-width="0.100" />
<text x="0.892" y="14.800"  fill="#000000" text-anchor="middle" font-size="1.00" font-family="sans" font-style="normal" font-weight="700">
Player</text>
<rect x="-3.400" y="15.250" width="8.585" height="2.600" fill="#FFFFFF" stroke="none" stroke-width="0"/>
<rect x="-3.400" y="15.250" width="8.585" height="2.600" fill="none" stroke="#000000" stroke-width="0.100" />
<text x="-3.250" y="15.950"  fill="#000000" text-anchor="start" font-size="0.80" font-family="monospace" font-style="normal" font-weight="400">
+id: String</text>
<text x="-3.250" y="16.750"  fill="#000000" text-anchor="start" font-size="0.80" font-family="monospace" font-style="normal" font-weight="400">
+ReactionTime: Int</text>
<text x="-3.250" y="17.550"  fill="#000000" text-anchor="start" font-size="0.80" font-family="monospace" font-style="normal" font-weight="400">
+NumOfClicks: Int = 0</text>
<rect x="-3.400" y="17.850" width="8.585" height="0.400" fill="#FFFFFF" stroke="none" stroke-width="0"/>
<rect x="-3.400" y="17.850" width="8.585" height="0.400" fill="none" stroke="#000000" stroke-width="0.100" />
<rect x="27.950" y="13.600" width="12.820" height="1.400" fill="#FFFFFF" stroke="none" stroke-width="0"/>
<rect x="27.950" y="13.600" width="12.820" height="1.400" fill="none" stroke="#000000" stroke-width="0.100" />
<text x="34.360" y="14.550"  fill="#000000" text-anchor="middle" font-size="1.00" font-family="sans" font-style="normal" font-weight="700">
SinglePlayer</text>
<rect x="27.950" y="15.000" width="12.820" height="1.000" fill="#FFFFFF" stroke="none" stroke-width="0"/>
<rect x="27.950" y="15.000" width="12.820" height="1.000" fill="none" stroke="#000000" stroke-width="0.100" />
<text x="28.100" y="15.700"  fill="#000000" text-anchor="start" font-size="0.80" font-family="monospace" font-style="normal" font-weight="400">
+</text>
<rect x="27.950" y="16.000" width="12.820" height="2.600" fill="#FFFFFF" stroke="none" stroke-width="0"/>
<rect x="27.950" y="16.000" width="12.820" height="2.600" fill="none" stroke="#000000" stroke-width="0.100" />
<text x="28.100" y="16.700"  fill="#000000" text-anchor="start" font-size="0.80" font-family="monospace" font-style="normal" font-weight="400">
+welcome_box(): DialogBoxCreator</text>
<text x="28.100" y="17.500"  fill="#000000" text-anchor="start" font-size="0.80" font-family="monospace" font-style="normal" font-weight="400">
+too_quick(): DialogBoxCreator</text>
<text x="28.100" y="18.300"  fill="#000000" text-anchor="start" font-size="0.80" font-family="monospace" font-style="normal" font-weight="400">
+just_right(): DialogBoxCreator</text>
<rect x="-18.800" y="16.350" width="14.360" height="1.400" fill="#FFFFFF" stroke="none" stroke-width="0"/>
<rect x="-18.800" y="16.350" width="14.360" height="1.400" fill="none" stroke="#000000" stroke-width="0.100" />
<text x="-11.620" y="17.300"  fill="#000000" text-anchor="middle" font-size="1.00" font-family="sans" font-style="normal" font-weight="700">
Multiplayer</text>
<rect x="-18.800" y="17.750" width="14.360" height="1.800" fill="#FFFFFF" stroke="none" stroke-width="0"/>
<rect x="-18.800" y="17.750" width="14.360" height="1.800" fill="none" stroke="#000000" stroke-width="0.100" />
<text x="-18.650" y="18.450"  fill="#000000" text-anchor="start" font-size="0.80" font-family="monospace" font-style="normal" font-weight="400">
+multiplayer_scores: ArrayList&lt;Long&gt;</text>
<text x="-18.650" y="19.250"  fill="#000000" text-anchor="start" font-size="0.80" font-family="monospace" font-style="normal" font-weight="400">
+NumofPlayers: Integer</text>
<rect x="-18.800" y="19.550" width="14.360" height="2.600" fill="#FFFFFF" stroke="none" stroke-width="0"/>
<rect x="-18.800" y="19.550" width="14.360" height="2.600" fill="none" stroke="#000000" stroke-width="0.100" />
<text x="-18.650" y="20.250"  fill="#000000" text-anchor="start" font-size="0.80" font-family="monospace" font-style="normal" font-weight="400">
+onCreate(): void</text>
<text x="-18.650" y="21.050"  fill="#000000" text-anchor="start" font-size="0.80" font-family="monospace" font-style="normal" font-weight="400">
-loadFromFile(): void</text>
<text x="-18.650" y="21.850"  fill="#000000" text-anchor="start" font-size="0.80" font-family="monospace" font-style="normal" font-weight="400">
-saveInFile(): void</text>
<rect x="7.600" y="-2.050" width="11.665" height="1.400" fill="#FFFFFF" stroke="none" stroke-width="0"/>
<rect x="7.600" y="-2.050" width="11.665" height="1.400" fill="none" stroke="#000000" stroke-width="0.100" />
<text x="13.433" y="-1.100"  fill="#000000" text-anchor="middle" font-size="1.00" font-family="sans" font-style="normal" font-weight="700">
Main Menu</text>
<rect x="7.600" y="-0.650" width="11.665" height="0.400" fill="#FFFFFF" stroke="none" stroke-width="0"/>
<rect x="7.600" y="-0.650" width="11.665" height="0.400" fill="none" stroke="#000000" stroke-width="0.100" />
<rect x="7.600" y="-0.250" width="11.665" height="2.600" fill="#FFFFFF" stroke="none" stroke-width="0"/>
<rect x="7.600" y="-0.250" width="11.665" height="2.600" fill="none" stroke="#000000" stroke-width="0.100" />
<text x="7.750" y="0.450"  fill="#000000" text-anchor="start" font-size="0.80" font-family="monospace" font-style="normal" font-weight="400">
+ReactionTimeButton(): Button</text>
<text x="7.750" y="1.250"  fill="#000000" text-anchor="start" font-size="0.80" font-family="monospace" font-style="normal" font-weight="400">
+BuzzerGameButton(): Button</text>
<text x="7.750" y="2.050"  fill="#000000" text-anchor="start" font-size="0.80" font-family="monospace" font-style="normal" font-weight="400">
+StatisticsButton(): Button</text>
<rect x="-9.700" y="6.400" width="11.280" height="1.400" fill="#FFFFFF" stroke="none" stroke-width="0"/>
<rect x="-9.700" y="6.400" width="11.280" height="1.400" fill="none" stroke="#000000" stroke-width="0.100" />
<text x="-4.060" y="7.350"  fill="#000000" text-anchor="middle" font-size="1.00" font-family="sans" font-style="normal" font-weight="700">
Multiplayer Menu</text>
<rect x="-9.700" y="7.800" width="11.280" height="0.400" fill="#FFFFFF" stroke="none" stroke-width="0"/>
<rect x="-9.700" y="7.800" width="11.280" height="0.400" fill="none" stroke="#000000" stroke-width="0.100" />
<rect x="-9.700" y="8.200" width="11.280" height="3.400" fill="#FFFFFF" stroke="none" stroke-width="0"/>
<rect x="-9.700" y="8.200" width="11.280" height="3.400" fill="none" stroke="#000000" stroke-width="0.100" />
<text x="-9.550" y="8.900"  fill="#000000" text-anchor="start" font-size="0.80" font-family="monospace" font-style="normal" font-weight="400">
+onCreate(): proteced void</text>
<text x="-9.550" y="9.700"  fill="#000000" text-anchor="start" font-size="0.80" font-family="monospace" font-style="normal" font-weight="400">
+TwoPlayerButton(): Button</text>
<text x="-9.550" y="10.500"  fill="#000000" text-anchor="start" font-size="0.80" font-family="monospace" font-style="normal" font-weight="400">
+ThreePlayerButton(): Button</text>
<text x="-9.550" y="11.300"  fill="#000000" text-anchor="start" font-size="0.80" font-family="monospace" font-style="normal" font-weight="400">
+FourPlayerButton(): Button</text>
<polyline fill="none" stroke="#000000" stroke-width="0.100"  points="-13.020,14.941 -13.020,12.700 -0.507,12.700 -0.507,13.750 "/>
<polygon fill="#FFFFFF" stroke="none" stroke-width="0.100" points="-13.020,16.200 -13.260,15.500 -13.020,14.800 -12.780,15.500 "/>
<polygon fill="none" stroke="#000000" stroke-width="0.100"  points="-13.020,16.200 -13.260,15.500 -13.020,14.800 -12.780,15.500 "/>
<polyline fill="none" stroke="#000000" stroke-width="0.100"  points="26.641,16.100 16.217,16.100 16.217,16.050 5.235,16.050 "/>
<polygon fill="#FFFFFF" stroke="none" stroke-width="0.100" points="27.900,16.100 27.200,16.340 26.500,16.100 27.200,15.860 "/>
<polygon fill="none" stroke="#000000" stroke-width="0.100"  points="27.900,16.100 27.200,16.340 26.500,16.100 27.200,15.860 "/>
<text x="5.700" y="16.650"  fill="#000000" text-anchor="start" font-size="0.80" font-family="sans" font-style="normal" font-weight="400">
1</text>
<text x="-0.350" y="13.425"  fill="#000000" text-anchor="start" font-size="0.80" font-family="sans" font-style="normal" font-weight="400">
2-4</text>
<text x="-14.250" y="15.675"  fill="#000000" text-anchor="start" font-size="0.80" font-family="sans" font-style="normal" font-weight="400">
1</text>
<text x="19.400" y="22.625"  fill="#000000" text-anchor="start" font-size="0.80" font-family="sans" font-style="normal" font-weight="400">
1</text>
<rect x="8.800" y="10.175" width="4.738" height="1.400" fill="#FFFFFF" stroke="none" stroke-width="0"/>
<rect x="8.800" y="10.175" width="4.738" height="1.400" fill="none" stroke="#000000" stroke-width="0.100" />
<text x="11.169" y="11.125"  fill="#000000" text-anchor="middle" font-size="1.00" font-family="sans" font-style="normal" font-weight="700">
Statistics</text>
<rect x="8.800" y="11.575" width="4.738" height="0.400" fill="#FFFFFF" stroke="none" stroke-width="0"/>
<rect x="8.800" y="11.575" width="4.738" height="0.400" fill="none" stroke="#000000" stroke-width="0.100" />
<rect x="8.800" y="11.975" width="4.738" height="0.400" fill="#FFFFFF" stroke="none" stroke-width="0"/>
<rect x="8.800" y="11.975" width="4.738" height="0.400" fill="none" stroke="#000000" stroke-width="0.100" />
<rect x="18.150" y="13.175" width="7.087" height="1.400" fill="#FFFFFF" stroke="none" stroke-width="0"/>
<rect x="18.150" y="13.175" width="7.087" height="1.400" fill="none" stroke="#000000" stroke-width="0.100" />
<text x="21.694" y="14.125"  fill="#000000" text-anchor="middle" font-size="1.00" font-family="sans" font-style="normal" font-weight="700">
Stats Manager</text>
<rect x="18.150" y="14.575" width="7.087" height="0.400" fill="#FFFFFF" stroke="none" stroke-width="0"/>
<rect x="18.150" y="14.575" width="7.087" height="0.400" fill="none" stroke="#000000" stroke-width="0.100" />
<rect x="18.150" y="14.975" width="7.087" height="0.400" fill="#FFFFFF" stroke="none" stroke-width="0"/>
<rect x="18.150" y="14.975" width="7.087" height="0.400" fill="none" stroke="#000000" stroke-width="0.100" />
<polyline fill="none" stroke="#000000" stroke-width="0.100"  points="14.846,11.275 16.194,11.275 16.194,14.275 18.100,14.275 "/>
<polygon fill="#FFFFFF" stroke="none" stroke-width="0.100" points="13.588,11.275 14.288,11.035 14.988,11.275 14.288,11.515 "/>
<polygon fill="none" stroke="#000000" stroke-width="0.100"  points="13.588,11.275 14.288,11.035 14.988,11.275 14.288,11.515 "/>
<rect x="-3.050" y="23.825" width="23.985" height="1.400" fill="#FFFFFF" stroke="none" stroke-width="0"/>
<rect x="-3.050" y="23.825" width="23.985" height="1.400" fill="none" stroke="#000000" stroke-width="0.100" />
<text x="8.942" y="24.775"  fill="#000000" text-anchor="middle" font-size="1.00" font-family="sans" font-style="normal" font-weight="700">
DialogBoxes</text>
<rect x="-3.050" y="25.225" width="23.985" height="4.200" fill="#FFFFFF" stroke="none" stroke-width="0"/>
<rect x="-3.050" y="25.225" width="23.985" height="4.200" fill="none" stroke="#000000" stroke-width="0.100" />
<text x="-2.900" y="25.925"  fill="#000000" text-anchor="start" font-size="0.80" font-family="monospace" font-style="normal" font-weight="400">
+Title: String</text>
<text x="-2.900" y="26.725"  fill="#000000" text-anchor="start" font-size="0.80" font-family="monospace" font-style="normal" font-weight="400">
+Message: String</text>
<text x="-2.900" y="27.525"  fill="#000000" text-anchor="start" font-size="0.80" font-family="monospace" font-style="normal" font-weight="400">
+Yes: String</text>
<text x="-2.900" y="28.325"  fill="#000000" text-anchor="start" font-size="0.80" font-family="monospace" font-style="normal" font-weight="400">
+Quit: String</text>
<text x="-2.900" y="29.125"  fill="#000000" text-anchor="start" font-size="0.80" font-family="monospace" font-style="normal" font-weight="400">
+</text>
<rect x="-3.050" y="29.425" width="23.985" height="1.800" fill="#FFFFFF" stroke="none" stroke-width="0"/>
<rect x="-3.050" y="29.425" width="23.985" height="1.800" fill="none" stroke="#000000" stroke-width="0.100" />
<text x="-2.900" y="30.125"  fill="#000000" text-anchor="start" font-size="0.80" font-family="monospace" font-style="normal" font-weight="400">
+getStuff(Title:String,Message:String,positiveMessage:String,</text>
<text x="-2.900" y="30.925"  fill="#000000" text-anchor="start" font-size="0.80" font-family="monospace" font-style="normal" font-weight="400">
          negativeMessage:String): void</text>
<polyline fill="none" stroke="#000000" stroke-width="0.100"  points="6.341,-1.350 4.265,-1.350 4.265,9.000 1.630,9.000 "/>
<polygon fill="#FFFFFF" stroke="none" stroke-width="0.100" points="7.600,-1.350 6.900,-1.110 6.200,-1.350 6.900,-1.590 "/>
<polygon fill="none" stroke="#000000" stroke-width="0.100"  points="7.600,-1.350 6.900,-1.110 6.200,-1.350 6.900,-1.590 "/>
<polyline fill="none" stroke="#000000" stroke-width="0.100"  points="20.574,0.150 41.820,0.150 41.820,14.300 40.770,14.300 "/>
<polygon fill="#FFFFFF" stroke="none" stroke-width="0.100" points="19.315,0.150 20.015,-0.090 20.715,0.150 20.015,0.390 "/>
<polygon fill="none" stroke="#000000" stroke-width="0.100"  points="19.315,0.150 20.015,-0.090 20.715,0.150 20.015,0.390 "/>
<polyline fill="none" stroke="#000000" stroke-width="0.100"  points="13.433,3.659 13.433,6.612 11.169,6.612 11.169,10.125 "/>
<polygon fill="#FFFFFF" stroke="none" stroke-width="0.100" points="13.433,2.400 13.673,3.100 13.433,3.800 13.193,3.100 "/>
<polygon fill="none" stroke="#000000" stroke-width="0.100"  points="13.433,2.400 13.673,3.100 13.433,3.800 13.193,3.100 "/>
<polyline fill="none" stroke="#000000" stroke-width="0.100"  points="34.360,19.909 34.360,21.562 8.942,21.562 8.942,23.775 "/>
<polygon fill="#FFFFFF" stroke="none" stroke-width="0.100" points="34.360,18.650 34.600,19.350 34.360,20.050 34.120,19.350 "/>
<polygon fill="none" stroke="#000000" stroke-width="0.100"  points="34.360,18.650 34.600,19.350 34.360,20.050 34.120,19.350 "/>
<polyline fill="none" stroke="#000000" stroke-width="0.100"  points="-11.620,23.409 -11.620,27.525 -3.100,27.525 "/>
<polygon fill="#FFFFFF" stroke="none" stroke-width="0.100" points="-11.620,22.150 -11.380,22.850 -11.620,23.550 -11.860,22.850 "/>
<polygon fill="none" stroke="#000000" stroke-width="0.100"  points="-11.620,22.150 -11.380,22.850 -11.620,23.550 -11.860,22.850 "/>
<polyline fill="none" stroke="#000000" stroke-width="0.100" stroke-dasharray="0.40,0.40" points="-2.910,11.600 -2.910,13.725 -10.470,13.725 -10.470,15.914 "/>
<polyline fill="none" stroke="#000000" stroke-width="0.100"  points="-10.720,15.282 -10.470,16.082 -10.220,15.282 "/>
<text x="-6.690" y="13.525"  fill="#000000" text-anchor="middle" font-size="0.80" font-family="monospace" font-style="normal" font-weight="400">
&lt;&lt;create&gt;&gt;</text>
<polygon fill="#FFFFFF" stroke="none" stroke-width="0.100" points="-18.850,-6.250 -15.150,-6.250 -14.550,-5.650 -14.550,-1.822 -18.850,-1.822 "/>
<polygon fill="none" stroke="#000000" stroke-width="0.100"  points="-18.850,-6.250 -15.150,-6.250 -14.550,-5.650 -14.550,-1.822 -18.850,-1.822 "/>
<polyline fill="none" stroke="#000000" stroke-width="0.050"  points="-15.150,-6.250 -15.150,-5.650 -14.550,-5.650 "/>
<text x="-18.500" y="-2.980"  fill="#000000" text-anchor="start" font-size="3.53" font-family="monospace" font-style="normal" font-weight="400">
UI</text>
</svg>